<?xml version="1.0" encoding="UTF-8" standalone="no"?>
<!-- Generator: Adobe Illustrator 17.1.0, SVG Export Plug-In . SVG Version: 6.00 Build 0)  -->

<svg
   xmlns:dc="http://purl.org/dc/elements/1.1/"
   xmlns:cc="http://creativecommons.org/ns#"
   xmlns:rdf="http://www.w3.org/1999/02/22-rdf-syntax-ns#"
   xmlns:svg="http://www.w3.org/2000/svg"
   xmlns="http://www.w3.org/2000/svg"
   xmlns:sodipodi="http://sodipodi.sourceforge.net/DTD/sodipodi-0.dtd"
   xmlns:inkscape="http://www.inkscape.org/namespaces/inkscape"
   version="1.1"
   id="Capa_1"
   x="0px"
   y="0px"
   viewBox="0 0 247.744 247.744"
   style="enable-background:new 0 0 247.744 247.744;"
   xml:space="preserve"
   inkscape:version="0.48.4 r9939"
   width="100%"
   height="100%"
   sodipodi:docname="ic_copy_gray-w32hdpi.svg"><metadata
     id="metadata49"><rdf:RDF><cc:Work
         rdf:about=""><dc:format>image/svg+xml</dc:format><dc:type
           rdf:resource="http://purl.org/dc/dcmitype/StillImage" /></cc:Work></rdf:RDF></metadata><defs
     id="defs47" /><sodipodi:namedview
     pagecolor="#ffffff"
     bordercolor="#666666"
     borderopacity="1"
     objecttolerance="10"
     gridtolerance="10"
     guidetolerance="10"
     inkscape:pageopacity="0"
     inkscape:pageshadow="2"
     inkscape:window-width="640"
     inkscape:window-height="480"
     id="namedview45"
     showgrid="false"
     inkscape:zoom="0.95259623"
     inkscape:cx="123.872"
     inkscape:cy="123.872"
     inkscape:window-x="75"
     inkscape:window-y="34"
     inkscape:window-maximized="0"
     inkscape:current-layer="Capa_1" /><g
     id="g3"
     style="fill:#666666"><path
       style="fill:#666666"
       d="M206.89,0H74.824c-9.649,0-17.5,7.851-17.5,17.5v21.005h-16.47c-9.649,0-17.5,7.85-17.5,17.5   v174.239c0,9.649,7.851,17.5,17.5,17.5h132.065c9.649,0,17.5-7.851,17.5-17.5V209.24h16.471c9.649,0,17.5-7.851,17.5-17.5V17.5   C224.39,7.851,216.54,0,206.89,0z M175.419,230.244c0,1.355-1.145,2.5-2.5,2.5H40.854c-1.355,0-2.5-1.145-2.5-2.5V56.005   c0-1.356,1.145-2.5,2.5-2.5h132.065c1.355,0,2.5,1.144,2.5,2.5V230.244z M209.39,191.74c0,1.355-1.145,2.5-2.5,2.5h-16.471V56.005   c0-9.65-7.851-17.5-17.5-17.5H72.324V17.5c0-1.355,1.144-2.5,2.5-2.5H206.89c1.355,0,2.5,1.145,2.5,2.5V191.74z"
       id="path5" /><path
       style="fill:#666666"
       d="M149.553,77.121H64.22c-4.143,0-7.5,3.357-7.5,7.5c0,4.143,3.357,7.5,7.5,7.5h85.333   c4.143,0,7.5-3.357,7.5-7.5C157.053,80.479,153.696,77.121,149.553,77.121z"
       id="path7" /><path
       style="fill:#666666"
       d="M149.553,110.898H64.22c-4.143,0-7.5,3.357-7.5,7.5s3.357,7.5,7.5,7.5h85.333   c4.143,0,7.5-3.357,7.5-7.5S153.696,110.898,149.553,110.898z"
       id="path9" /><path
       style="fill:#666666"
       d="M149.553,144.676H64.22c-4.143,0-7.5,3.357-7.5,7.5c0,4.143,3.357,7.5,7.5,7.5h85.333   c4.143,0,7.5-3.357,7.5-7.5C157.053,148.033,153.696,144.676,149.553,144.676z"
       id="path11" /><path
       style="fill:#666666"
       d="M149.553,178.453H64.22c-4.143,0-7.5,3.357-7.5,7.5c0,4.143,3.357,7.5,7.5,7.5h85.333   c4.143,0,7.5-3.357,7.5-7.5C157.053,181.811,153.696,178.453,149.553,178.453z"
       id="path13" /></g><g
     id="g15" /><g
     id="g17" /><g
     id="g19" /><g
     id="g21" /><g
     id="g23" /><g
     id="g25" /><g
     id="g27" /><g
     id="g29" /><g
     id="g31" /><g
     id="g33" /><g
     id="g35" /><g
     id="g37" /><g
     id="g39" /><g
     id="g41" /><g
     id="g43" /></svg>