<?xml version="1.0" encoding="UTF-8" standalone="no"?>
<!-- Generator: Adobe Illustrator 16.0.0, SVG Export Plug-In . SVG Version: 6.00 Build 0)  -->

<svg
   xmlns:dc="http://purl.org/dc/elements/1.1/"
   xmlns:cc="http://creativecommons.org/ns#"
   xmlns:rdf="http://www.w3.org/1999/02/22-rdf-syntax-ns#"
   xmlns:svg="http://www.w3.org/2000/svg"
   xmlns="http://www.w3.org/2000/svg"
   xmlns:sodipodi="http://sodipodi.sourceforge.net/DTD/sodipodi-0.dtd"
   xmlns:inkscape="http://www.inkscape.org/namespaces/inkscape"
   version="1.1"
   id="Capa_1"
   x="0px"
   y="0px"
   width="45.964px"
   height="45.964px"
   viewBox="0 0 45.964 45.964"
   style="enable-background:new 0 0 45.964 45.964;"
   xml:space="preserve"
   inkscape:version="0.48.4 r9939"
   sodipodi:docname="ic_images-w36hdpi.svg"><metadata
     id="metadata45"><rdf:RDF><cc:Work
         rdf:about=""><dc:format>image/svg+xml</dc:format><dc:type
           rdf:resource="http://purl.org/dc/dcmitype/StillImage" /></cc:Work></rdf:RDF></metadata><defs
     id="defs43" /><sodipodi:namedview
     pagecolor="#ffffff"
     bordercolor="#666666"
     borderopacity="1"
     objecttolerance="10"
     gridtolerance="10"
     guidetolerance="10"
     inkscape:pageopacity="0"
     inkscape:pageshadow="2"
     inkscape:window-width="640"
     inkscape:window-height="480"
     id="namedview41"
     showgrid="false"
     inkscape:zoom="5.134453"
     inkscape:cx="22.982"
     inkscape:cy="22.982"
     inkscape:window-x="75"
     inkscape:window-y="34"
     inkscape:window-maximized="0"
     inkscape:current-layer="Capa_1" /><g
     id="g3"
     style="fill:#ffffff"><g
       id="g5"
       style="fill:#ffffff"><path
         d="M7.071,30.834V11.062H4.042C1.803,11.062,0,12.893,0,15.13v26.732c0,2.24,1.803,4.051,4.042,4.051h26.733    c2.238,0,4.076-1.811,4.076-4.051v-2.92H15.179C10.733,38.943,7.071,35.281,7.071,30.834z"
         id="path7"
         style="fill:#ffffff" /><path
         d="M41.913,0.05H15.179c-2.238,0-4.066,1.813-4.066,4.051v26.733c0,2.241,1.829,4.067,4.066,4.067h26.734    c2.237,0,4.051-1.826,4.051-4.067V4.102C45.964,1.862,44.15,0.05,41.913,0.05z M41.363,28.589    c-0.223,0.412-0.652,0.656-1.12,0.656H17.336c-0.403,0-0.782-0.18-1.022-0.502c-0.24-0.324-0.313-0.736-0.197-1.123l3.277-10.839    c0.216-0.713,0.818-1.24,1.554-1.361c0.736-0.12,1.476,0.19,1.908,0.797l4.582,6.437c0.617,0.867,1.812,1.082,2.689,0.484    l4.219-2.865c0.434-0.295,0.967-0.402,1.48-0.299c0.515,0.102,0.966,0.408,1.253,0.848l4.229,6.472    C41.564,27.687,41.585,28.179,41.363,28.589z"
         id="path9"
         style="fill:#ffffff" /></g></g><g
     id="g11" /><g
     id="g13" /><g
     id="g15" /><g
     id="g17" /><g
     id="g19" /><g
     id="g21" /><g
     id="g23" /><g
     id="g25" /><g
     id="g27" /><g
     id="g29" /><g
     id="g31" /><g
     id="g33" /><g
     id="g35" /><g
     id="g37" /><g
     id="g39" /></svg>