<?xml version="1.0" encoding="UTF-8" standalone="no"?>
<!-- Generator: Adobe Illustrator 18.0.0, SVG Export Plug-In . SVG Version: 6.00 Build 0)  -->

<svg
   xmlns:dc="http://purl.org/dc/elements/1.1/"
   xmlns:cc="http://creativecommons.org/ns#"
   xmlns:rdf="http://www.w3.org/1999/02/22-rdf-syntax-ns#"
   xmlns:svg="http://www.w3.org/2000/svg"
   xmlns="http://www.w3.org/2000/svg"
   xmlns:sodipodi="http://sodipodi.sourceforge.net/DTD/sodipodi-0.dtd"
   xmlns:inkscape="http://www.inkscape.org/namespaces/inkscape"
   version="1.1"
   id="Capa_1"
   x="0px"
   y="0px"
   viewBox="0 0 409.848 409.848"
   style="enable-background:new 0 0 409.848 409.848;"
   xml:space="preserve"
   inkscape:version="0.48.4 r9939"
   width="100%"
   height="100%"
   sodipodi:docname="pictures8.svg"><metadata
     id="metadata45"><rdf:RDF><cc:Work
         rdf:about=""><dc:format>image/svg+xml</dc:format><dc:type
           rdf:resource="http://purl.org/dc/dcmitype/StillImage" /></cc:Work></rdf:RDF></metadata><defs
     id="defs43" /><sodipodi:namedview
     pagecolor="#ffffff"
     bordercolor="#666666"
     borderopacity="1"
     objecttolerance="10"
     gridtolerance="10"
     guidetolerance="10"
     inkscape:pageopacity="0"
     inkscape:pageshadow="2"
     inkscape:window-width="640"
     inkscape:window-height="480"
     id="namedview41"
     showgrid="false"
     inkscape:zoom="0.57582323"
     inkscape:cx="204.924"
     inkscape:cy="204.924"
     inkscape:window-x="75"
     inkscape:window-y="34"
     inkscape:window-maximized="0"
     inkscape:current-layer="Capa_1" /><g
     id="g3"
     style="fill:#808080"><path
       d="M359.848,49.785H50c-27.614,0-50,22.386-50,50v210.277c0,27.614,22.386,50,50,50h309.848c27.614,0,50-22.386,50-50V99.785   C409.848,72.171,387.462,49.785,359.848,49.785z M369.848,310.062c0,5.514-4.486,10-10,10H50c-5.514,0-10-4.486-10-10V99.785   c0-5.514,4.486-10,10-10h309.848c5.514,0,10,4.486,10,10V310.062z"
       id="path5"
       style="fill:#808080" /><path
       d="M248.214,174.113c-6.909-6.909-18.111-6.909-25.019,0l-64.973,64.973l-18.271-18.271   c-3.317-3.318-7.817-5.181-12.509-5.181s-9.192,1.863-12.509,5.181l-47.318,47.318c-5.059,5.059-6.573,12.668-3.835,19.279   c2.738,6.611,9.189,10.921,16.345,10.921h61.561h33.074h154.965c7.155,0,13.606-4.311,16.344-10.921   c2.738-6.611,1.225-14.22-3.835-19.279L248.214,174.113z"
       id="path7"
       style="fill:#808080" /><circle
       cx="126.924"
       cy="149.334"
       r="26.333"
       id="circle9"
       style="fill:#808080" /></g><g
     id="g11" /><g
     id="g13" /><g
     id="g15" /><g
     id="g17" /><g
     id="g19" /><g
     id="g21" /><g
     id="g23" /><g
     id="g25" /><g
     id="g27" /><g
     id="g29" /><g
     id="g31" /><g
     id="g33" /><g
     id="g35" /><g
     id="g37" /><g
     id="g39" /></svg>